<svg viewBox="0 0 36.4088 37.069" xmlns="http://www.w3.org/2000/svg" xmlns:xlink="http://www.w3.org/1999/xlink" width="36.408752" height="37.068970" fill="none">
	<rect id="archery" width="36.408760" height="37.068966" x="0.000000" y="0.000000" />
	<path id="path" d="M29.2817 29.6614L33.3747 37.069L29.8946 37.069L26.8226 31.5102C24.3028 33.0671 21.3598 33.9799 18.2044 33.9799C15.049 33.9799 12.1044 33.0671 9.58612 31.5102L6.51413 37.069L3.03406 37.069L7.12701 29.6614C3.69397 26.5476 1.51703 22.0282 1.51703 16.9899C1.51703 7.62231 9.00358 0 18.2044 0C20.0991 0 21.915 0.338254 23.6141 0.934447L21.1656 3.42733C20.2114 3.2111 19.2223 3.08908 18.2044 3.08908C10.6769 3.08908 4.55109 9.32593 4.55109 16.9899C4.55109 24.654 10.6769 30.8908 18.2044 30.8908C25.7319 30.8908 31.8577 24.654 31.8577 16.9899C31.8577 15.9536 31.7363 14.9465 31.5254 13.975L33.9739 11.4821C34.5595 13.212 34.8917 15.0608 34.8917 16.9899C34.8917 22.0282 32.7148 26.5476 29.2817 29.6614ZM22.7555 6.17816L22.7555 10.1723L20.1386 12.8367C20.6074 13.0514 21.0488 13.334 21.422 13.714C21.7952 14.0939 22.0789 14.5341 22.2988 15.0037L24.899 12.3563L28.8221 12.3563L33.3732 7.7227L27.305 7.7227L27.305 1.54454L22.7555 6.17816ZM18.2044 9.26724C18.7232 9.26724 19.2314 9.3213 19.7214 9.42324L19.7214 6.30172C19.2238 6.22913 18.7202 6.17816 18.2044 6.17816C12.3486 6.17816 7.58516 11.028 7.58516 16.9899C7.58516 22.9519 12.3486 27.8017 18.2044 27.8017C24.0601 27.8017 28.8236 22.9519 28.8236 16.9899C28.8236 16.4648 28.7735 15.952 28.7022 15.4454L25.6363 15.4454C25.7364 15.9443 25.7895 16.4617 25.7895 16.9899C25.7895 21.2482 22.3868 24.7126 18.2044 24.7126C14.0219 24.7126 10.6192 21.2482 10.6192 16.9899C10.6192 12.7316 14.0219 9.26724 18.2044 9.26724ZM18.2044 18.5345C17.367 18.5345 16.6873 17.8425 16.6873 16.9899C16.6873 16.5637 16.8573 16.1775 17.1318 15.898L20.1386 12.8367C18.4517 12.0629 16.3308 12.344 14.9852 13.714C14.1266 14.5882 13.6533 15.7528 13.6533 16.9899C13.6533 18.2271 14.1266 19.3917 14.9852 20.2659C15.8439 21.1401 16.9877 21.6236 18.2044 21.6236C19.421 21.6236 20.5634 21.1417 21.422 20.2675C22.2806 19.3932 22.7555 18.2287 22.7555 16.9899C22.7555 16.2887 22.5871 15.6184 22.2988 15.0037L19.2784 18.0804C19.0039 18.3599 18.6231 18.5345 18.2044 18.5345Z" fill="currentColor" fill-rule="nonzero" />
</svg>
