<svg viewBox="0 0 36 36" xmlns="http://www.w3.org/2000/svg" xmlns:xlink="http://www.w3.org/1999/xlink" width="36.000000" height="36.000000" fill="none">
	<rect id="chart-histogram" width="36.000000" height="36.000000" x="0.000000" y="0.000000" />
	<path id="path" d="M34.5 33L7.5 33C6.25736 33 5.1967 32.5607 4.31802 31.682C3.43934 30.8033 3 29.7426 3 28.5L3 1.5C3 0.5 2.5 0 1.5 0C0.5 0 0 0.5 0 1.5L0 28.5C0.00119099 29.4942 0.192293 30.4504 0.573306 31.3687C0.954319 32.287 1.49633 33.0977 2.19933 33.8007C2.90233 34.5037 3.71298 35.0457 4.63127 35.4267C5.54956 35.8077 6.5058 35.9988 7.5 36L34.5 36C35.5 36 36 35.5 36 34.5C36 33.5 35.5 33 34.5 33Z" fill="currentColor" fill-rule="nonzero" />
	<path id="path" d="M9 30C10 30 10.5 29.5 10.5 28.5L10.5 18C10.5 17 10 16.5 9 16.5C8 16.5 7.5 17 7.5 18L7.5 28.5C7.5 29.5 8 30 9 30Z" fill="currentColor" fill-rule="nonzero" />
	<path id="path" d="M15 15L15 28.5C15 29.5 15.5 30 16.5 30C17.5 30 18 29.5 18 28.5L18 15C18 14 17.5 13.5 16.5 13.5C15.5 13.5 15 14 15 15Z" fill="currentColor" fill-rule="nonzero" />
	<path id="path" d="M22.5 19.5L22.5 28.5C22.5 29.5 23 30 24 30C25 30 25.5 29.5 25.5 28.5L25.5 19.5C25.5 18.5 25 18 24 18C23 18 22.5 18.5 22.5 19.5Z" fill="currentColor" fill-rule="nonzero" />
	<path id="path" d="M30 13.5L30 28.5C30 29.5 30.5 30 31.5 30C32.5 30 33 29.5 33 28.5L33 13.5C33 12.5 32.5 12 31.5 12C30.5 12 30 12.5 30 13.5Z" fill="currentColor" fill-rule="nonzero" />
	<path id="path" d="M8.99998 13.5C9.41416 13.4999 9.76766 13.3534 10.0605 13.0605L15.4395 7.68149C16.1465 7.00797 16.8535 7.00797 17.5605 7.68149L20.8185 10.9395C21.6971 11.8178 22.7576 12.257 24 12.257C25.2424 12.257 26.3029 11.8178 27.1815 10.9395L35.5605 2.56049C36.2432 1.85359 36.2371 1.15269 35.5422 0.457773C34.8473 -0.237142 34.1464 -0.243238 33.4395 0.439487L25.0605 8.81699C24.3535 9.52377 23.6465 9.52377 22.9395 8.81699L19.6815 5.56049C18.8029 4.68213 17.7424 4.24295 16.5 4.24295C15.2576 4.24295 14.1971 4.68213 13.3185 5.56049L7.93948 10.9395C7.46718 11.4119 7.35884 11.9568 7.61447 12.574C7.87031 13.1913 8.33215 13.5 8.99998 13.5Z" fill="currentColor" fill-rule="nonzero" />
</svg>
