<svg viewBox="0 0 36.4088 37.069" xmlns="http://www.w3.org/2000/svg" xmlns:xlink="http://www.w3.org/1999/xlink" width="36.408752" height="37.068966" fill="none">
	<rect id="coins" width="36.408760" height="37.068966" x="0.000000" y="0.000000" />
	<path id="path" d="M25.031 0C18.6504 0 13.6533 3.05356 13.6533 6.95043L13.6533 10.9462C12.9206 10.8581 12.159 10.8118 11.3777 10.8118C4.9971 10.8118 0 13.8653 0 17.7622L0 30.1185C0 34.0154 4.9971 37.069 11.3777 37.069C16.5463 37.069 20.8076 35.0657 22.2397 32.233C23.1469 32.3674 24.0814 32.4353 25.031 32.4353C31.4117 32.4353 36.4088 29.3818 36.4088 25.4849L36.4088 6.95043C36.4088 3.05356 31.4117 0 25.031 0ZM33.3747 19.3068C33.3747 21.1293 29.8066 23.1681 25.031 23.1681C24.2543 23.1681 23.4928 23.114 22.7555 23.009L22.7555 19.9446C23.4988 20.0327 24.2604 20.079 25.031 20.079C28.3594 20.079 31.3115 19.2481 33.3747 17.8997L33.3747 19.3068ZM3.03406 22.5333C5.09723 23.8817 8.04937 24.7126 11.3777 24.7126C14.7061 24.7126 17.6582 23.8817 19.7214 22.5333L19.7214 23.9404C19.7214 25.7629 16.1534 27.8017 11.3777 27.8017C6.60212 27.8017 3.03406 25.7629 3.03406 23.9404L3.03406 22.5333ZM33.3747 13.1286C33.3747 14.9511 29.8066 16.9899 25.031 16.9899C24.2194 16.9899 23.423 16.9312 22.6554 16.817C22.3626 15.4469 21.4417 14.2159 20.0673 13.229C21.5601 13.6615 23.2409 13.9009 25.031 13.9009C28.3594 13.9009 31.3115 13.0699 33.3747 11.7215L33.3747 13.1286ZM25.031 3.08908C29.8066 3.08908 33.3747 5.12787 33.3747 6.95043C33.3747 8.77299 29.8066 10.8118 25.031 10.8118C20.2554 10.8118 16.6873 8.77299 16.6873 6.95043C16.6873 5.12787 20.2554 3.08908 25.031 3.08908ZM11.3777 13.9009C16.1534 13.9009 19.7214 15.9397 19.7214 17.7622C19.7214 19.5848 16.1534 21.6236 11.3777 21.6236C6.60212 21.6236 3.03406 19.5848 3.03406 17.7622C3.03406 15.9397 6.60212 13.9009 11.3777 13.9009ZM11.3777 33.9799C6.60212 33.9799 3.03406 31.9411 3.03406 30.1185L3.03406 28.7115C5.09723 30.0598 8.04937 30.8908 11.3777 30.8908C14.7061 30.8908 17.6582 30.0598 19.7214 28.7115L19.7214 30.1185C19.7214 31.9411 16.1534 33.9799 11.3777 33.9799ZM25.031 29.3463C24.2543 29.3463 23.4928 29.2922 22.7555 29.1872L22.7555 26.1228C23.4988 26.2108 24.2604 26.2572 25.031 26.2572C28.3594 26.2572 31.3115 25.4262 33.3747 24.0778L33.3747 25.4849C33.3747 27.3075 29.8066 29.3463 25.031 29.3463Z" fill="currentColor" fill-rule="nonzero" />
</svg>
