<svg viewBox="0 0 36.4088 37.069" xmlns="http://www.w3.org/2000/svg" xmlns:xlink="http://www.w3.org/1999/xlink" width="36.408752" height="37.068970" fill="none">
	<rect id="dashboard-panel" width="36.408760" height="37.068966" x="0.000000" y="0.000000" />
	<path id="path" d="M21.2384 18.5345C21.2384 20.1084 20.7712 21.5679 19.9763 22.7881L15.6148 18.3476C15.3296 18.0572 15.1703 17.6649 15.1703 17.2556L15.1703 10.9678C18.6322 11.6829 21.2384 14.7982 21.2384 18.5345ZM12.1363 17.895L12.1363 10.9678C8.26782 11.7678 5.46738 15.5643 6.17887 19.8751C6.67191 22.8623 8.93987 25.3474 11.8359 26.0409C14.0659 26.5738 16.1746 26.0919 17.8312 24.9737L13.0237 20.079C12.4548 19.4998 12.1363 18.7136 12.1363 17.895ZM28.8236 10.8118L25.7895 10.8118C24.9506 10.8118 24.2725 11.5037 24.2725 12.3563C24.2725 13.2089 24.9506 13.9008 25.7895 13.9008L28.8236 13.9008C29.6625 13.9008 30.3406 13.2089 30.3406 12.3563C30.3406 11.5037 29.6625 10.8118 28.8236 10.8118ZM28.8236 16.9899L25.7895 16.9899C24.9506 16.9899 24.2725 17.6819 24.2725 18.5345C24.2725 19.3871 24.9506 20.079 25.7895 20.079L28.8236 20.079C29.6625 20.079 30.3406 19.3871 30.3406 18.5345C30.3406 17.6819 29.6625 16.9899 28.8236 16.9899ZM28.8236 23.1681L25.7895 23.1681C24.9506 23.1681 24.2725 23.86 24.2725 24.7126C24.2725 25.5652 24.9506 26.2572 25.7895 26.2572L28.8236 26.2572C29.6625 26.2572 30.3406 25.5652 30.3406 24.7126C30.3406 23.86 29.6625 23.1681 28.8236 23.1681ZM36.4088 12.3563L36.4088 24.7126C36.4088 28.9709 33.0061 32.4353 28.8236 32.4353L7.58516 32.4353C3.4027 32.4353 0 28.9709 0 24.7126L0 12.3563C0 8.09801 3.4027 4.63361 7.58516 4.63361L28.8236 4.63361C33.0061 4.63361 36.4088 8.09801 36.4088 12.3563ZM33.3747 12.3563C33.3747 9.80164 31.3328 7.72269 28.8236 7.72269L7.58516 7.72269C5.07599 7.72269 3.03406 9.80164 3.03406 12.3563L3.03406 24.7126C3.03406 27.2673 5.07599 29.3462 7.58516 29.3462L28.8236 29.3462C31.3328 29.3462 33.3747 27.2673 33.3747 24.7126L33.3747 12.3563Z" fill="currentColor" fill-rule="nonzero" />
</svg>
