<svg viewBox="0 0 36.4088 34.5125" xmlns="http://www.w3.org/2000/svg" xmlns:xlink="http://www.w3.org/1999/xlink" width="36.408752" height="34.512482" fill="none">
	<rect id="receipt" width="36.408760" height="34.512482" x="0.000000" y="0.000000" />
	<path id="path" d="M24.2725 0L12.1362 0C11.1308 0.00114155 10.1637 0.184347 9.23494 0.549616C8.30622 0.914886 7.48637 1.4345 6.77539 2.10845C6.0644 2.78241 5.51624 3.55956 5.1309 4.43991C4.74556 5.32025 4.55229 6.23698 4.55109 7.1901L4.55109 33.0745C4.55156 33.6521 4.82131 34.0757 5.36033 34.3453C5.89935 34.6148 6.42048 34.5866 6.92372 34.2608L10.1186 32.1915L13.3135 34.2608C13.8849 34.6317 14.4563 34.6317 15.0277 34.2608L18.2135 32.1915L21.3992 34.2608C21.9712 34.6326 22.5431 34.6326 23.115 34.2608L26.3008 32.193L29.4865 34.2594C29.9894 34.5841 30.5099 34.612 31.0481 34.343C31.5863 34.074 31.8562 33.6512 31.8577 33.0745L31.8577 7.1901C31.8565 6.23698 31.6632 5.32025 31.2778 4.43991C30.8925 3.55956 30.3443 2.78241 29.6334 2.10845C28.9224 1.4345 28.1025 0.914886 27.1738 0.549617C26.2451 0.184347 25.278 0.00114184 24.2725 0ZM28.8236 30.3422L27.1549 29.2608C26.5824 28.8883 26.01 28.8883 25.4376 29.2608L22.2518 31.3301L19.066 29.2608C18.4941 28.8891 17.9222 28.8891 17.3503 29.2608L14.1645 31.3301L10.9787 29.2608C10.4078 28.8907 9.83693 28.8907 9.26602 29.2608L7.58515 30.3422L7.58515 7.1901C7.58515 5.99881 8.02948 4.98197 8.91813 4.1396C9.80679 3.29723 10.8795 2.87604 12.1362 2.87604L24.2725 2.87604C25.5292 2.87604 26.602 3.29723 27.4906 4.1396C28.3793 4.98197 28.8236 5.99881 28.8236 7.1901L28.8236 30.3422Z" fill="currentColor" fill-rule="nonzero" />
	<rect id="rect" width="15.170318" height="2.876040" x="10.619202" y="11.504166" rx="1.000000" fill="rcurrentColor" />
	<rect id="rect" width="12.136253" height="2.876040" x="10.619263" y="17.256241" rx="1.000000" fill="rcurrentColor" />
</svg>
